<svg width="62" height="75" viewBox="0 0 62 75" fill="none" xmlns="http://www.w3.org/2000/svg">
<path fill-rule="evenodd" clip-rule="evenodd" d="M6.72896 1.1655C5.41493 -0.148592 3.28446 -0.148592 1.97043 1.1655C0.65634 2.47953 0.65634 4.61 1.97043 5.92402L28.889 32.8425C30.203 34.1566 32.3334 34.1566 33.6475 32.8425L60.5663 5.92402C61.88 4.61 61.88 2.47953 60.5663 1.1655C59.252 -0.148592 57.1214 -0.148592 55.8071 1.1655L31.2682 25.7047L6.72896 1.1655ZM6.72896 41.5433C5.41493 40.2292 3.28446 40.2292 1.97043 41.5433C0.65634 42.8573 0.65634 44.9878 1.97043 46.3018L28.889 73.2207C30.203 74.5343 32.3334 74.5343 33.6475 73.2207L60.5663 46.3018C61.88 44.9878 61.88 42.8573 60.5663 41.5433C59.252 40.2292 57.1214 40.2292 55.8071 41.5433L31.2682 66.0825L6.72896 41.5433Z" fill="black"/>
</svg>
