<?xml version="1.0" encoding="utf-8"?>
<!-- Svg Vector Icons : http://www.onlinewebfonts.com/icon -->
<!DOCTYPE svg PUBLIC "-//W3C//DTD SVG 1.1//EN" "http://www.w3.org/Graphics/SVG/1.1/DTD/svg11.dtd">
<svg version="1.1" xmlns="http://www.w3.org/2000/svg" xmlns:xlink="http://www.w3.org/1999/xlink" x="0px" y="0px" viewBox="0 0 1000 1000" enable-background="new 0 0 1000 1000" xml:space="preserve">
<metadata> Svg Vector Icons : http://www.onlinewebfonts.com/icon </metadata>
<g><g transform="translate(0.000000,511.000000) scale(0.100000,-0.100000)"><path d="M8522.1,4910c-166.7-54.7-325.8-169.1-567.1-412.9c-121.9-121.9-231.3-223.9-243.8-223.9c-10,0-74.6,52.2-141.8,114.4l-124.4,114.4l62.2,74.6c79.6,94.5,79.6,201.5,0,281.1c-134.3,136.8-77.1,184.1-1651.5-1390.4c-1397.8-1397.8-1455-1457.5-1455-1547.1c0-109.4,77.1-184.1,191.5-184.1c69.7,0,213.9,134.3,1328.2,1248.6L7171.5,4236l129.3-131.8l131.8-129.3l-731.3-731.3c-400.4-400.4-726.3-741.2-721.3-756.1c14.9-37.3,1437.6-1472.5,1460-1472.5c10,0,529.8,512.4,1151.6,1139.2c1226.2,1231.2,1236.2,1246.1,1295.9,1574.4c74.6,422.8-194,907.9-624.3,1119.3c-144.3,72.1-191.5,82.1-400.4,89.5C8711.1,4942.4,8589.2,4932.4,8522.1,4910z"/><path d="M3691.8,216.6L1714.5-1770.7l97-99.5l97-99.5l-102-107c-54.7-57.2-106.9-121.9-114.4-144.3c-7.5-24.9-54.7-44.8-126.8-54.7c-161.7-22.4-365.6-129.3-482.5-251.2c-87.1-92-126.9-179.1-353.2-810.8c-141.8-390.5-261.2-721.3-266.1-736.2c-5-17.4-57.2-37.3-111.9-44.8c-116.9-19.9-236.3-129.3-248.7-233.8c-27.4-216.4,156.7-400.4,363.1-360.7c104.5,19.9,208.9,136.8,228.8,251.2c14.9,92.1,27.4,107,119.4,141.8c54.7,19.9,390.5,144.2,746.2,271.1c519.8,191.5,659.1,251.2,728.8,318.3c87.1,84.6,231.3,345.7,231.3,420.4c0,67.1,27.4,121.9,54.7,106.9c44.8-29.9,149.2,17.4,258.7,119.4l111.9,102l129.3-126.8l129.3-129.3l1974.9,1974.9L7154.1,711.5l-743.7,746.2l-743.7,743.7L3691.8,216.6z M1799-3044.3c27.4-29.8,49.7-79.6,49.7-111.9c0-84.6-107-181.5-199-181.5c-64.7,0-149.2-74.6-651.7-584.5c-348.2-355.7-592-584.5-614.3-579.6c-109.4,22.4-42.3,109.5,522.3,691.5c412.9,425.3,579.5,614.3,582,656.6C1493.1-3001.9,1694.6-2932.3,1799-3044.3z"/></g></g>
</svg>