<svg xmlns="http://www.w3.org/2000/svg" width="30.72" height="32.887" viewBox="0 0 30.72 32.887">
  <path id="Union_4" data-name="Union 4" d="M.7,32.887a.68.68,0,1,1,0-1.36h28.42a.68.68,0,0,1,0,1.36ZM.269,30.463a.91.91,0,0,1-.221-.937l.16-1.28,2.26,2.25-1.26.16v.02a.911.911,0,0,1-.939-.213ZM.5,27.207l.58-4.42a.378.378,0,0,1,0-.1,2.431,2.431,0,0,0,.55.831,2.524,2.524,0,0,0,2.1.72,2.518,2.518,0,0,0,2.849,2.81,2.523,2.523,0,0,0,.71,2.13v.049a2.814,2.814,0,0,0,.83.55h-.09l-4.28.68Zm7.55,1.239-.04-.04a1.471,1.471,0,0,1,0-2.09l14.9-14.791,2,2L9.627,28.777a1.458,1.458,0,0,1-1.58-.33Zm-2.93-2.92A1.48,1.48,0,0,1,5,23.586l.149-.13L20.008,8.6l2.07,2.06L7.2,25.527a1.489,1.489,0,0,1-2.08,0Zm-2.81-2.82-.04-.041a1.489,1.489,0,0,1-.339-1.58l15.3-15.27,2,2L4.368,22.676c-.05.05-.08.111-.13.16a1.47,1.47,0,0,1-1.93-.13ZM17.924,5.065,19.791,3.2l7.693,7.693-1.867,1.867Zm2.583-2.539L22.417.6a2,2,0,0,1,2.85,0l4.85,4.85a2,2,0,0,1,0,2.86l-1.92,1.91Z" transform="translate(0)"/>
</svg>
