<?xml version="1.0" encoding="utf-8"?>
<!-- Generator: Adobe Illustrator 19.0.0, SVG Export Plug-In . SVG Version: 6.00 Build 0)  -->
<svg version="1.1" id="Layer_1" xmlns="http://www.w3.org/2000/svg" xmlns:xlink="http://www.w3.org/1999/xlink" x="0px" y="0px"
	 viewBox="-290 380.1 30.7 32.9" style="enable-background:new -290 380.1 30.7 32.9;" xml:space="preserve">
<path id="Union_4" d="M-274.5,388c0.5,0,0.9,0.3,1.2,0.7l1.1,1.5l-4.5,0l1.1-1.4l0,0C-275.4,388.2-275,388-274.5,388z M-271.5,391.5
	l3.8,5.1c0,0,0.1,0.1,0.1,0.1c-0.4-0.2-0.9-0.3-1.4-0.3c-1.1,0-2.2,0.5-2.8,1.4c-1.2-1.6-3.4-1.9-5-0.7c-0.3,0.2-0.5,0.4-0.7,0.7
	c-0.7-0.9-1.7-1.4-2.8-1.5l0,0c-0.5,0-0.9,0.1-1.4,0.3l0.1-0.1l3.7-5L-271.5,391.5z M-280.4,397.8L-280.4,397.8
	c1.2,0,2.2,0.9,2.2,2.1c0,0,0,0,0,0l-0.4,29.9l-4,0l0.3-30.7C-282,398.2-281.2,397.8-280.4,397.8L-280.4,397.8z M-274.5,397.8
	c1.1,0,1.9,0.8,2.1,1.8l0,0.3l-0.2,29.9l-4.2,0l0.3-29.9C-276.6,398.7-275.6,397.8-274.5,397.8L-274.5,397.8z M-268.8,397.9
	L-268.8,397.9c0.9,0,1.7,0.5,2,1.3l-0.3,30.7l-4,0l0.2-29.9c0-0.1,0-0.2,0-0.3C-270.8,398.6-269.9,397.9-268.8,397.9L-268.8,397.9z
	 M-267.1,431.3l0,3.8l-15.5-0.1l0-3.8L-267.1,431.3z M-267.1,436.5l0,3.9c0,1.6-1.3,2.8-2.8,2.8c0,0,0,0,0,0l-9.8-0.1
	c-1.6,0-2.8-1.3-2.9-2.8c0,0,0,0,0-0.1l0-3.9L-267.1,436.5z"/>
</svg>
