<svg width="45" height="44" viewBox="0 0 45 44" fill="none" xmlns="http://www.w3.org/2000/svg">
<path fill-rule="evenodd" clip-rule="evenodd" d="M22.1379 0C9.91369 0 0 9.91236 0 22.1407C0 31.9211 6.34319 40.2201 15.141 43.1493C16.2487 43.3517 16.6524 42.6678 16.6524 42.0809C16.6524 41.5549 16.6333 40.1632 16.6225 38.3161C10.4642 39.6535 9.16479 35.3477 9.16479 35.3477C8.15764 32.7898 6.70609 32.1086 6.70609 32.1086C4.69588 30.7359 6.85831 30.7632 6.85831 30.7632C9.08053 30.9194 10.2494 33.0451 10.2494 33.0451C12.2242 36.428 15.4319 35.4509 16.6931 34.8842C16.8943 33.4543 17.4665 32.4785 18.0985 31.9251C13.1824 31.3651 8.01358 29.4665 8.01358 20.9827C8.01358 18.5648 8.87664 16.5899 10.2929 15.0418C10.0646 14.4818 9.30479 12.2311 10.5104 9.18247C10.5104 9.18247 12.3683 8.58716 16.598 11.4509C18.3635 10.9602 20.2582 10.7156 22.1406 10.7061C24.0217 10.7156 25.915 10.9602 27.6833 11.4509C31.9103 8.58716 33.7654 9.18247 33.7654 9.18247C34.9739 12.2311 34.2141 14.4818 33.9871 15.0418C35.406 16.5899 36.2623 18.5648 36.2623 20.9827C36.2623 29.4883 31.0852 31.3598 26.1542 31.9075C26.948 32.5913 27.6561 33.9424 27.6561 36.0082C27.6561 38.967 27.6289 41.3551 27.6289 42.0809C27.6289 42.6735 28.0285 43.3627 29.1512 43.1463C37.9423 40.2121 44.28 31.9198 44.28 22.1407C44.28 9.91236 34.3663 0 22.1379 0Z" fill="black"/>
</svg>
