<?xml version="1.0" encoding="utf-8"?>
<!-- Generator: Adobe Illustrator 19.0.0, SVG Export Plug-In . SVG Version: 6.00 Build 0)  -->
<svg version="1.1" id="Layer_1" xmlns="http://www.w3.org/2000/svg" xmlns:xlink="http://www.w3.org/1999/xlink" x="0px" y="0px"
	 viewBox="0 0 155.2 140" style="enable-background:new 0 0 155.2 140;" xml:space="preserve">
<g id="XMLID_1_">
	<path id="XMLID_95_" d="M36.7,81.4c0,1-0.3,1.9-1,2.5c-0.7,0.6-1.8,0.9-3.2,0.9h-16c-1.4,0-2.5-0.3-3.2-0.9
		c-0.7-0.6-1.1-1.4-1.1-2.5c0-0.7,0.2-1.4,0.5-1.9c0.4-0.5,0.9-1,1.7-1.5l1.1-0.7c1.1-0.7,2-1.5,2.6-2.5c0.6-1,1.3-2.7,2-5.1
		l12.8-41.4c0.6-2,0.8-3.4,0.6-4.3c-0.2-0.9-0.9-1.6-2-2.2c-0.9-0.5-1.6-1-2-1.6c-0.4-0.6-0.6-1.3-0.6-2.1c0-1.1,0.4-1.9,1.1-2.5
		c0.7-0.6,1.8-0.9,3.3-0.9h32.1c1.5,0,2.5,0.3,3.3,0.9c0.7,0.6,1,1.4,1,2.5c0,0.9-0.2,1.6-0.6,2.2c-0.4,0.6-1,1.1-1.8,1.4
		c-0.8,0.4-1.3,0.9-1.5,1.6c-0.1,0.7,0,1.8,0.5,3.2L80,70.2c0.7,2.2,1.3,3.9,1.9,4.9c0.6,1,1.3,1.8,2.3,2.3c1.2,0.6,2,1.2,2.4,1.8
		c0.4,0.6,0.6,1.3,0.6,2.2c0,1-0.4,1.9-1.1,2.5c-0.7,0.6-1.8,0.9-3.3,0.9H56.4c-1.5,0-2.6-0.3-3.3-0.9c-0.7-0.6-1-1.4-1-2.5
		c0-0.8,0.2-1.5,0.6-2c0.4-0.5,1.1-1,2-1.4l1.6-0.8c0.9-0.4,1.2-0.9,1.1-1.6c-0.1-0.7-0.4-1.8-0.9-3.3L41.8,23.5l2.1-1.5L29.6,68.4
		c-0.5,1.7-0.8,3.1-0.8,4.1c0,1.1,0.3,1.9,0.9,2.6c0.6,0.7,1.6,1.4,3.1,2.2l1.4,0.7c0.8,0.4,1.4,0.8,1.9,1.3
		C36.4,79.9,36.7,80.6,36.7,81.4z M28.6,55h29.2l0.1,7.4H28.5L28.6,55z"/>
	<path id="XMLID_98_" d="M118.3,86.2c0,1.9,0.3,3.8,0.9,5.6c0.6,1.8,1.3,3.5,2.1,5.3c0.8,1.7,1.5,3.5,2.1,5.2
		c0.6,1.8,0.9,3.6,0.9,5.4c0,4.7-1.8,8.5-5.3,11.3c-3.5,2.8-8.4,4.2-14.5,4.2c-4.4,0-8.1-0.6-11-1.8c-2.9-1.2-5.1-2.8-6.6-4.8
		c-1.5-2-2.2-4.2-2.2-6.5c0-3.1,0.8-5.4,2.5-6.9c1.7-1.5,3.9-2.3,6.8-2.3c2.7,0,4.9,0.9,6.5,2.6c1.6,1.8,2.4,4.1,2.4,7v3.8
		c0,1.3,0.3,2.2,1,2.8c0.7,0.6,1.6,0.9,2.8,0.9c1.3,0,2.3-0.4,3-1.1c0.7-0.7,1-1.9,1-3.4c0-1.6-0.5-3.2-1.4-4.8
		c-0.9-1.5-2.1-3.1-3.5-4.6c-1.4-1.5-2.7-3.1-4.1-4.6c-1.4-1.5-2.5-3.1-3.4-4.6c-0.9-1.6-1.4-3.2-1.4-4.9V65.9
		c0-1.1-0.1-1.8-0.4-2.3c-0.3-0.5-0.7-0.8-1.3-0.9l-1.1-0.3c-0.7-0.2-1.2-0.6-1.5-1c-0.3-0.4-0.5-1-0.5-1.7c0-0.8,0.2-1.4,0.6-1.9
		c0.4-0.5,1.3-0.9,2.4-1.4l11.1-4.3c1.8-0.7,3.3-1.2,4.3-1.5c1-0.3,2-0.4,2.8-0.4c1.6,0,2.7,0.4,3.5,1.3c0.8,0.8,1.2,1.9,1.2,3.2
		V86.2z"/>
</g>
<g id="XMLID_100_">
</g>
<g id="XMLID_112_">
</g>
<g id="XMLID_113_">
</g>
<g id="XMLID_114_">
</g>
<g id="XMLID_115_">
</g>
<g id="XMLID_116_">
</g>
</svg>
