<?xml version="1.0" encoding="utf-8"?>
<!-- Generator: Adobe Illustrator 19.0.0, SVG Export Plug-In . SVG Version: 6.00 Build 0)  -->
<svg version="1.1" id="Layer_1" xmlns="http://www.w3.org/2000/svg" xmlns:xlink="http://www.w3.org/1999/xlink" x="0px" y="0px"
	 viewBox="-290 380.1 30.7 32.9" style="enable-background:new -290 380.1 30.7 32.9;" xml:space="preserve">
<style type="text/css">
	.st0{display:none;}
</style>
<path id="Union_4" class="st0" d="M-274.5,388c0.5,0,0.9,0.3,1.2,0.7l1.1,1.5l-4.5,0l1.1-1.4l0,0C-275.4,388.2-275,388-274.5,388z
	 M-271.5,391.5l3.8,5.1c0,0,0.1,0.1,0.1,0.1c-0.4-0.2-0.9-0.3-1.4-0.3c-1.1,0-2.2,0.5-2.8,1.4c-1.2-1.6-3.4-1.9-5-0.7
	c-0.3,0.2-0.5,0.4-0.7,0.7c-0.7-0.9-1.7-1.4-2.8-1.5l0,0c-0.5,0-0.9,0.1-1.4,0.3l0.1-0.1l3.7-5L-271.5,391.5z M-280.4,397.8
	L-280.4,397.8c1.2,0,2.2,0.9,2.2,2.1c0,0,0,0,0,0l-0.4,29.9l-4,0l0.3-30.7C-282,398.2-281.2,397.8-280.4,397.8L-280.4,397.8z
	 M-274.5,397.8c1.1,0,1.9,0.8,2.1,1.8l0,0.3l-0.2,29.9l-4.2,0l0.3-29.9C-276.6,398.7-275.6,397.8-274.5,397.8L-274.5,397.8z
	 M-268.8,397.9L-268.8,397.9c0.9,0,1.7,0.5,2,1.3l-0.3,30.7l-4,0l0.2-29.9c0-0.1,0-0.2,0-0.3C-270.8,398.6-269.9,397.9-268.8,397.9
	L-268.8,397.9z M-267.1,431.3l0,3.8l-15.5-0.1l0-3.8L-267.1,431.3z M-267.1,436.5l0,3.9c0,1.6-1.3,2.8-2.8,2.8c0,0,0,0,0,0l-9.8-0.1
	c-1.6,0-2.8-1.3-2.9-2.8c0,0,0,0,0-0.1l0-3.9L-267.1,436.5z"/>
<path class="st0" d="M-274.4,386.4c-0.5,5.3-7.7,8.4-5.4,14c0.7,1.6,2,2.9,3.6,3.5c0.6,0.2,1.3,0.3,2,0.2c0.3-0.1,0.6-0.1,0.9-0.3
	c3.7-1.5,4.3-6,3.3-9.4C-270.8,391.1-272.9,388.2-274.4,386.4L-274.4,386.4z M-270.8,416.3c-2.9,0.6-5.9,0.5-8.7-0.2l1.4,26.1
	c0.1,1.6,0.3,2.8,2.3,3.1c0.6,0,1.2-0.2,1.6-0.6c0.4-0.5,0.7-1.1,0.7-1.7L-270.8,416.3z M-272.8,406.2c-1.1,0.4-3.1,0.6-4.5-0.2
	l-2.2,8.5c3,0.8,6,1,8.9,0.3C-271.4,410.6-272.3,410.5-272.8,406.2z"/>
<g>
	<g transform="translate(0.000000,511.000000) scale(0.100000,-0.100000)">
		<path d="M-2700.1,561.5c4.3,8.4,5.9,18.8,5.9,37.2c0,9.3,0.3,17.3,0.8,17.8c0.4,0.4,4.8,0.9,9.7,1l9.1,0.4l0.5-5.2
			c0.6-6.6,4.6-10.7,10.7-10.7c10.3-0.1,9.9-4.1,9.9,115.5c0,106.1-0.1,110.5-3.5,113.9c-4.2,4.2-9.9,4.1-14.3-0.3
			c-2.6-2.6-3-13.2-3-97.8l0-95l-9.9,0.1l-9.9-0.1l0,55.5c0,30.4-0.6,55.7-1.3,56.1c-2,0.9-110.5,1.3-111.3,0.5
			c-0.4-0.4-0.7-39.6-0.5-86.9c0.2-93.3,0.4-94.2,10.6-108.9c13.2-18.9,41.8-27.1,66.2-18.8c8.2,2.7,10.4,4.2,18.6,11.8
			C-2706,553.1-2701.8,558.1-2700.1,561.5z"/>
		<path d="M-2694.9,923l-0.4,150.5l-7.5,0.1l-7.5,0.1l-0.2,7.9c-0.1,4.2-0.6,8.7-1.1,9.8c-0.7,1.2,0.4,3.8,2.7,6.9
			c5.3,7,9,18.8,8.8,27.8c-0.2,6.8-2,11.6-17.4,44.2c-9.4,20.2-17.5,37.3-17.8,38c-0.5,0.9,0.8,3.6,2.5,5.9
			c3.7,5.2,4.1,13.9,0.6,18.3c-7.2,9.3-21.1,9.2-27.5-0.1c-3.2-4.7-2.7-13.1,0.9-18.2c2.9-4.1,3-5.1,0.9-9.9
			c-1.3-2.8-9.3-20.3-18-38.6c-12.5-27-15.5-34.6-15.6-39.7c-0.1-6.5,4.3-21.9,7.2-24.7c2.5-2.5,3.6-5.7,2-6.1
			c-2.8-0.6-5-6.3-5.3-14.4l-0.4-8.1l-9.7-0.1h-9.8V922.7V772.8l56.6-0.1h56.5L-2694.9,923z M-2746.8,1118.6
			c-2.2,0.1-4.9,1.1-6.1,2.4c-3.2,3.2-2.8,11,0.7,14.4c2.5,2.5,2.8,8.5,2.6,46.9c-0.3,26.7,0.3,44.7,1.3,45.3
			c5,3.3,5.8-2.6,6.4-46.1c0.5-31.8,1.3-45.3,2.8-47C-2733.6,1128.6-2738.6,1118.3-2746.8,1118.6z"/>
	</g>
</g>
</svg>
