<svg width="45" height="53" viewBox="0 0 45 53" fill="none" xmlns="http://www.w3.org/2000/svg">
<path fill-rule="evenodd" clip-rule="evenodd" d="M4.02545 6.03818C4.02545 4.92659 4.92659 4.02545 6.03818 4.02545H28.5235C29.0573 4.02545 29.5693 4.23752 29.9467 4.61498L39.6652 14.3333C40.0424 14.7107 40.2545 15.2227 40.2545 15.7565V46.2927C40.2545 47.4042 39.3532 48.3055 38.2418 48.3055H6.03818C4.92659 48.3055 4.02545 47.4042 4.02545 46.2927V6.03818ZM6.03818 0C2.70337 0 0 2.70337 0 6.03818V46.2927C0 49.6274 2.70337 52.3309 6.03818 52.3309H38.2418C41.5765 52.3309 44.28 49.6274 44.28 46.2927V15.7565C44.28 14.1551 43.644 12.6192 42.5116 11.4868L32.793 1.76854C31.6608 0.636183 30.1249 0 28.5235 0H6.03818ZM10.0636 12.0764C8.95205 12.0764 8.05091 12.9775 8.05091 14.0891C8.05091 15.2007 8.95205 16.1018 10.0636 16.1018H22.14C23.2516 16.1018 24.1527 15.2007 24.1527 14.0891C24.1527 12.9775 23.2516 12.0764 22.14 12.0764H10.0636ZM10.0636 24.1527C8.95205 24.1527 8.05091 25.0539 8.05091 26.1655C8.05091 27.277 8.95205 28.1782 10.0636 28.1782H34.2164C35.3278 28.1782 36.2291 27.277 36.2291 26.1655C36.2291 25.0539 35.3278 24.1527 34.2164 24.1527H10.0636ZM10.0636 36.2291C8.95205 36.2291 8.05091 37.1304 8.05091 38.2418C8.05091 39.3532 8.95205 40.2545 10.0636 40.2545H34.2164C35.3278 40.2545 36.2291 39.3532 36.2291 38.2418C36.2291 37.1304 35.3278 36.2291 34.2164 36.2291H10.0636Z" fill="black"/>
</svg>
