<?xml version="1.0" encoding="utf-8"?>
<!-- Generator: Adobe Illustrator 19.0.0, SVG Export Plug-In . SVG Version: 6.00 Build 0)  -->
<svg version="1.1" id="Layer_1" xmlns="http://www.w3.org/2000/svg" xmlns:xlink="http://www.w3.org/1999/xlink" x="0px" y="0px"
	 viewBox="-227 327 155.2 140" style="enable-background:new -227 327 155.2 140;" xml:space="preserve">
<style type="text/css">
	.st0{display:none;}
	.st1{display:inline;}
</style>
<g id="Layer_1_1_" class="st0">
	<g id="XMLID_1_" class="st1">
		<path id="XMLID_95_" d="M-190.3,408.4c0,1-0.3,1.9-1,2.5s-1.8,0.9-3.2,0.9h-16c-1.4,0-2.5-0.3-3.2-0.9s-1.1-1.4-1.1-2.5
			c0-0.7,0.2-1.4,0.5-1.9c0.4-0.5,0.9-1,1.7-1.5l1.1-0.7c1.1-0.7,2-1.5,2.6-2.5c0.6-1,1.3-2.7,2-5.1l12.8-41.4
			c0.6-2,0.8-3.4,0.6-4.3s-0.9-1.6-2-2.2c-0.9-0.5-1.6-1-2-1.6c-0.4-0.6-0.6-1.3-0.6-2.1c0-1.1,0.4-1.9,1.1-2.5s1.8-0.9,3.3-0.9
			h32.1c1.5,0,2.5,0.3,3.3,0.9c0.7,0.6,1,1.4,1,2.5c0,0.9-0.2,1.6-0.6,2.2c-0.4,0.6-1,1.1-1.8,1.4c-0.8,0.4-1.3,0.9-1.5,1.6
			c-0.1,0.7,0,1.8,0.5,3.2l13.7,43.7c0.7,2.2,1.3,3.9,1.9,4.9c0.6,1,1.3,1.8,2.3,2.3c1.2,0.6,2,1.2,2.4,1.8c0.4,0.6,0.6,1.3,0.6,2.2
			c0,1-0.4,1.9-1.1,2.5s-1.8,0.9-3.3,0.9h-26.4c-1.5,0-2.6-0.3-3.3-0.9c-0.7-0.6-1-1.4-1-2.5c0-0.8,0.2-1.5,0.6-2
			c0.4-0.5,1.1-1,2-1.4l1.6-0.8c0.9-0.4,1.2-0.9,1.1-1.6c-0.1-0.7-0.4-1.8-0.9-3.3l-14.7-48.8l2.1-1.5l-14.3,46.4
			c-0.5,1.7-0.8,3.1-0.8,4.1c0,1.1,0.3,1.9,0.9,2.6c0.6,0.7,1.6,1.4,3.1,2.2l1.4,0.7c0.8,0.4,1.4,0.8,1.9,1.3
			C-190.6,406.9-190.3,407.6-190.3,408.4z M-198.4,382h29.2l0.1,7.4h-29.4L-198.4,382z"/>
		<path id="XMLID_98_" d="M-108.7,413.2c0,1.9,0.3,3.8,0.9,5.6c0.6,1.8,1.3,3.5,2.1,5.3c0.8,1.7,1.5,3.5,2.1,5.2
			c0.6,1.8,0.9,3.6,0.9,5.4c0,4.7-1.8,8.5-5.3,11.3s-8.4,4.2-14.5,4.2c-4.4,0-8.1-0.6-11-1.8c-2.9-1.2-5.1-2.8-6.6-4.8
			s-2.2-4.2-2.2-6.5c0-3.1,0.8-5.4,2.5-6.9c1.7-1.5,3.9-2.3,6.8-2.3c2.7,0,4.9,0.9,6.5,2.6c1.6,1.8,2.4,4.1,2.4,7v3.8
			c0,1.3,0.3,2.2,1,2.8c0.7,0.6,1.6,0.9,2.8,0.9c1.3,0,2.3-0.4,3-1.1s1-1.9,1-3.4c0-1.6-0.5-3.2-1.4-4.8c-0.9-1.5-2.1-3.1-3.5-4.6
			s-2.7-3.1-4.1-4.6s-2.5-3.1-3.4-4.6c-0.9-1.6-1.4-3.2-1.4-4.9v-24.1c0-1.1-0.1-1.8-0.4-2.3c-0.3-0.5-0.7-0.8-1.3-0.9l-1.1-0.3
			c-0.7-0.2-1.2-0.6-1.5-1s-0.5-1-0.5-1.7c0-0.8,0.2-1.4,0.6-1.9c0.4-0.5,1.3-0.9,2.4-1.4l11.1-4.3c1.8-0.7,3.3-1.2,4.3-1.5
			c1-0.3,2-0.4,2.8-0.4c1.6,0,2.7,0.4,3.5,1.3c0.8,0.8,1.2,1.9,1.2,3.2v31.5H-108.7z M-120.4,372.8c-3.7,0-6.7-0.9-8.9-2.6
			c-2.2-1.7-3.3-4.1-3.3-7.1s1.1-5.3,3.3-7c2.2-1.7,5.1-2.6,8.9-2.6c3.7,0,6.7,0.9,8.9,2.6c2.2,1.7,3.3,4,3.3,7s-1.1,5.4-3.3,7.1
			C-113.8,371.9-116.7,372.8-120.4,372.8z"/>
	</g>
</g>
<g id="Layer_2" class="st0">
	<ellipse id="XMLID_112_" class="st1" cx="-120.4" cy="363.2" rx="9.1" ry="8.5"/>
	<g id="XMLID_113_" class="st1">
	</g>
	<g id="XMLID_114_" class="st1">
	</g>
	<g id="XMLID_115_" class="st1">
	</g>
	<g id="XMLID_116_" class="st1">
	</g>
	<g id="XMLID_117_" class="st1">
	</g>
	<g id="XMLID_118_" class="st1">
	</g>
</g>
<g>
	<path d="M-142.1,338.8c-28.2,3.3-51.4,25.6-54.8,54c-4,36.7,25.4,67.9,62.1,67.9c3.4,0,6.8-0.6,9.6-1.7
		c14.1-3.9,20.3-21.1,11.9-33.4c-4.5-6.1,0.6-15,8.5-15h20.9c6.2,0,11.3-5,11.3-11.1C-72.6,363.3-104.2,334.3-142.1,338.8z
		 M-134.7,449.5c-6.2,0-11.3-5-11.3-11.1c0-6.1,5.1-11.1,11.3-11.1c6.2,0,11.3,5,11.3,11.1C-123.4,444.5-128.5,449.5-134.7,449.5z
		 M-98,393.9c-4.5,0-8.5-3.9-8.5-8.3c0-4.5,4-8.3,8.5-8.3c4.5,0,8.5,3.9,8.5,8.3C-89.6,390-93.5,393.9-98,393.9z M-120.6,371.6
		c-4.5,0-8.5-3.9-8.5-8.3s4-8.3,8.5-8.3s8.5,3.9,8.5,8.3S-116.1,371.6-120.6,371.6z M-148.8,371.6c-4.5,0-8.5-3.9-8.5-8.3
		s4-8.3,8.5-8.3c4.5,0,8.5,3.9,8.5,8.3S-144.3,371.6-148.8,371.6z M-171.4,388.3c-4.5,0-8.5-3.9-8.5-8.3c0-4.5,4-8.3,8.5-8.3
		c4.5,0,8.5,3.9,8.5,8.3C-162.9,384.4-166.9,388.3-171.4,388.3z M-177.1,416.1c-4.5,0-8.5-3.9-8.5-8.3c0-4.5,4-8.3,8.5-8.3
		c4.5,0,8.5,3.9,8.5,8.3C-168.6,412.2-172.5,416.1-177.1,416.1z"/>
</g>
</svg>
