<?xml version="1.0" encoding="utf-8"?>
<!-- Generator: Adobe Illustrator 19.0.0, SVG Export Plug-In . SVG Version: 6.00 Build 0)  -->
<svg version="1.1" id="Layer_1" xmlns:ns="&#38;ns_ai;"
	 xmlns="http://www.w3.org/2000/svg" xmlns:xlink="http://www.w3.org/1999/xlink" x="0px" y="0px" viewBox="-243 330.8 124.2 132.2"
	 style="enable-background:new -243 330.8 124.2 132.2;" xml:space="preserve">
<g ns:extraneous="self">
	<path d="M-191.3,364.5c-6.7,0-12.1,5.2-12.1,11.6v28c0,2.2,1.8,4,4.1,4c2.3,0,4.1-1.8,4.1-4v-25.3h2.1c0,0,0,66,0,70.3
		c0,2.9,2.5,5.3,5.5,5.3c3.1,0,5.5-2.4,5.5-5.3v-40.8h2.3v40.8c0,2.9,2.5,5.3,5.5,5.3c3.1,0,5.5-2.4,5.5-5.3v-70.3h2.1v25.3
		c0,2.2,1.8,4,4.1,4c2.3,0,4.1-1.8,4.1-4v-28c0-6.4-5.5-11.6-12.1-11.6C-170.5,364.5-191.3,364.5-191.3,364.5z"/>
</g>
</svg>
